<svg width="60" height="60" viewBox="0 0 60 60" fill="none" xmlns="http://www.w3.org/2000/svg">
<path d="M50.0001 27.4975H55.0001C55.0001 14.6725 45.3176 5 32.4751 5V10C42.6301 10 50.0001 17.3575 50.0001 27.4975Z" fill="#0161A9"/>
<path d="M32.5002 20.0001C37.7577 20.0001 40.0002 22.2426 40.0002 27.5001H45.0002C45.0002 19.4376 40.5627 15.0001 32.5002 15.0001V20.0001ZM41.0552 33.6076C40.5748 33.171 39.9436 32.9381 39.2947 32.9582C38.6459 32.9782 38.0302 33.2497 37.5777 33.7151L31.5952 39.8676C30.1552 39.5926 27.2602 38.6901 24.2802 35.7176C21.3002 32.7351 20.3977 29.8326 20.1302 28.4026L26.2777 22.4176C26.7437 21.9654 27.0156 21.3497 27.0356 20.7006C27.0557 20.0516 26.8224 19.4202 26.3852 18.9401L17.1477 8.78261C16.7103 8.301 16.1024 8.00887 15.4531 7.96826C14.8038 7.92765 14.1642 8.14175 13.6702 8.56511L8.24522 13.2176C7.81299 13.6514 7.55502 14.2287 7.52022 14.8401C7.48272 15.4651 6.76772 30.2701 18.2477 41.7551C28.2627 51.7676 40.8077 52.5001 44.2627 52.5001C44.7677 52.5001 45.0777 52.4851 45.1602 52.4801C45.7715 52.4459 46.3485 52.1868 46.7802 51.7526L51.4302 46.3251C51.8539 45.8314 52.0684 45.192 52.0283 44.5427C51.9881 43.8934 51.6965 43.2853 51.2152 42.8476L41.0552 33.6076Z" fill="#0161A9"/>
</svg>
