<svg width="53" height="60" viewBox="0 0 53 60" fill="none" xmlns="http://www.w3.org/2000/svg">
<g clip-path="url(#clip0_92_24171)">
<path d="M26.25 14.3906C17.7305 14.3906 10.8047 21.3164 10.793 29.8359C10.793 32.7539 11.6133 35.6016 13.1602 38.0508L13.5234 38.6367L11.9648 44.332L17.8125 42.7969L18.375 43.1367C20.7422 44.543 23.4609 45.293 26.2383 45.293H26.25C34.7578 45.293 41.8711 38.3672 41.8711 29.8477C41.8711 25.7227 40.0898 21.8438 37.1719 18.9258C34.2422 15.9961 30.375 14.3906 26.25 14.3906ZM35.332 36.4688C34.9453 37.5586 33.0938 38.543 32.2031 38.6719C30.7266 38.8945 29.5781 38.7773 26.6367 37.5117C21.9844 35.4961 18.9375 30.8086 18.7031 30.5039C18.4688 30.1992 16.8047 27.9844 16.8047 25.6992C16.8047 23.4141 18 22.2891 18.4336 21.8203C18.8555 21.3516 19.3594 21.2344 19.6758 21.2344C19.9805 21.2344 20.2969 21.2344 20.5664 21.2461C20.8477 21.2578 21.2344 21.1406 21.6094 22.043C21.9961 22.9688 22.9219 25.2539 23.0391 25.4883C23.1562 25.7227 23.2383 25.9922 23.0742 26.2969C22.1836 28.0781 21.2344 28.0078 21.7148 28.8281C23.5078 31.9102 25.3008 32.9766 28.0312 34.3477C28.5 34.582 28.7695 34.5469 29.0391 34.2305C29.3086 33.9258 30.1992 32.8711 30.5039 32.4141C30.8086 31.9453 31.125 32.0273 31.5469 32.1797C31.9688 32.332 34.2539 33.457 34.7227 33.6914C35.1914 33.9258 35.4961 34.043 35.6133 34.2305C35.7188 34.4531 35.7188 35.3906 35.332 36.4688ZM46.875 3.75H5.625C2.51953 3.75 0 6.26953 0 9.375V50.625C0 53.7305 2.51953 56.25 5.625 56.25H46.875C49.9805 56.25 52.5 53.7305 52.5 50.625V9.375C52.5 6.26953 49.9805 3.75 46.875 3.75ZM26.2383 48.4219C23.1211 48.4219 20.0625 47.6367 17.3555 46.1602L7.5 48.75L10.1367 39.1172C8.50781 36.3047 7.65234 33.1055 7.65234 29.8242C7.66406 19.582 15.9961 11.25 26.2383 11.25C31.207 11.25 35.8711 13.1836 39.3867 16.6992C42.8906 20.2148 45 24.8789 45 29.8477C45 40.0898 36.4805 48.4219 26.2383 48.4219Z" fill="#00E676"/>
</g>
<defs>
<clipPath id="clip0_92_24171">
<rect width="52.5" height="60" fill="white"/>
</clipPath>
</defs>
</svg>
